<svg xmlns="http://www.w3.org/2000/svg" width="32" height="33" viewBox="0 0 32 33" fill="none">
  <path fill-rule="evenodd" clip-rule="evenodd" d="M8.5 14.3664C8.5 13.8141 8.94772 13.3664 9.5 13.3664H22.5C23.0523 13.3664 23.5 13.8141 23.5 14.3664C23.5 14.9187 23.0523 15.3664 22.5 15.3664H9.5C8.94772 15.3664 8.5 14.9187 8.5 14.3664Z" fill="white"/>
  <path fill-rule="evenodd" clip-rule="evenodd" d="M8.5 18.3664C8.5 17.8141 8.94772 17.3664 9.5 17.3664H22.5C23.0523 17.3664 23.5 17.8141 23.5 18.3664C23.5 18.9187 23.0523 19.3664 22.5 19.3664H9.5C8.94772 19.3664 8.5 18.9187 8.5 18.3664Z" fill="white"/>
  <path fill-rule="evenodd" clip-rule="evenodd" d="M3.58579 6.95218C3.96086 6.57711 4.46957 6.36639 5 6.36639H27C27.5304 6.36639 28.0391 6.57711 28.4142 6.95218C28.7893 7.32725 29 7.83596 29 8.36639V27.3664C29 27.713 28.8205 28.0348 28.5257 28.217C28.2309 28.3993 27.8628 28.4158 27.5528 28.2608L24 26.4844L20.4472 28.2608C20.1657 28.4016 19.8343 28.4016 19.5528 28.2608L16 26.4844L12.4472 28.2608C12.1657 28.4016 11.8343 28.4016 11.5528 28.2608L8 26.4844L4.44721 28.2608C4.13723 28.4158 3.76909 28.3993 3.47427 28.217C3.17945 28.0348 3 27.713 3 27.3664V8.36639C3 7.83596 3.21071 7.32725 3.58579 6.95218ZM27 8.36639L5 8.36639L5 25.7484L7.55279 24.472C7.83431 24.3312 8.16569 24.3312 8.44721 24.472L12 26.2484L15.5528 24.472C15.8343 24.3312 16.1657 24.3312 16.4472 24.472L20 26.2484L23.5528 24.472C23.8343 24.3312 24.1657 24.3312 24.4472 24.472L27 25.7484V8.36639Z" fill="white"/>
</svg>